<mxfile host="app.diagrams.net" modified="2024-03-17T00:58:00.393Z" agent="Mozilla/5.0 (Windows NT 10.0; Win64; x64) AppleWebKit/537.36 (KHTML, like Gecko) Chrome/122.0.0.0 Safari/537.36 Edg/122.0.0.0" etag="EhmWpQVvCORuzyYOla-c" version="24.0.7" type="github">
  <diagram name="Page-1" id="cjrPb6bUP1PEznIdoHOp">
    <mxGraphModel dx="2086" dy="788" grid="1" gridSize="10" guides="1" tooltips="1" connect="1" arrows="1" fold="1" page="1" pageScale="1" pageWidth="827" pageHeight="1169" math="0" shadow="0">
      <root>
        <mxCell id="0" />
        <mxCell id="1" parent="0" />
        <mxCell id="_XLxsBZU-_MmjeRrphI--1" value="Server" style="swimlane;whiteSpace=wrap;html=1;" vertex="1" parent="1">
          <mxGeometry x="-100" y="120" width="1570" height="1320" as="geometry" />
        </mxCell>
        <mxCell id="_XLxsBZU-_MmjeRrphI--3" value="database thread" style="swimlane;whiteSpace=wrap;html=1;" vertex="1" parent="_XLxsBZU-_MmjeRrphI--1">
          <mxGeometry x="920" y="80" width="610" height="480" as="geometry" />
        </mxCell>
        <mxCell id="_XLxsBZU-_MmjeRrphI--118" value="broadcast channel provider" style="shape=process;whiteSpace=wrap;html=1;backgroundOutline=1;" vertex="1" parent="_XLxsBZU-_MmjeRrphI--3">
          <mxGeometry x="20" y="385" width="290" height="60" as="geometry" />
        </mxCell>
        <mxCell id="_XLxsBZU-_MmjeRrphI--119" value="models" style="swimlane;fontStyle=0;childLayout=stackLayout;horizontal=1;startSize=30;horizontalStack=0;resizeParent=1;resizeParentMax=0;resizeLast=0;collapsible=1;marginBottom=0;whiteSpace=wrap;html=1;" vertex="1" parent="_XLxsBZU-_MmjeRrphI--3">
          <mxGeometry x="421" y="60" width="140" height="120" as="geometry" />
        </mxCell>
        <mxCell id="_XLxsBZU-_MmjeRrphI--120" value="user" style="text;strokeColor=none;fillColor=none;align=left;verticalAlign=middle;spacingLeft=4;spacingRight=4;overflow=hidden;points=[[0,0.5],[1,0.5]];portConstraint=eastwest;rotatable=0;whiteSpace=wrap;html=1;" vertex="1" parent="_XLxsBZU-_MmjeRrphI--119">
          <mxGeometry y="30" width="140" height="30" as="geometry" />
        </mxCell>
        <mxCell id="_XLxsBZU-_MmjeRrphI--121" value="product" style="text;strokeColor=none;fillColor=none;align=left;verticalAlign=middle;spacingLeft=4;spacingRight=4;overflow=hidden;points=[[0,0.5],[1,0.5]];portConstraint=eastwest;rotatable=0;whiteSpace=wrap;html=1;" vertex="1" parent="_XLxsBZU-_MmjeRrphI--119">
          <mxGeometry y="60" width="140" height="30" as="geometry" />
        </mxCell>
        <mxCell id="_XLxsBZU-_MmjeRrphI--122" value="invoice" style="text;strokeColor=none;fillColor=none;align=left;verticalAlign=middle;spacingLeft=4;spacingRight=4;overflow=hidden;points=[[0,0.5],[1,0.5]];portConstraint=eastwest;rotatable=0;whiteSpace=wrap;html=1;" vertex="1" parent="_XLxsBZU-_MmjeRrphI--119">
          <mxGeometry y="90" width="140" height="30" as="geometry" />
        </mxCell>
        <mxCell id="_XLxsBZU-_MmjeRrphI--4" value="next.js worker_thread" style="swimlane;whiteSpace=wrap;html=1;startSize=23;" vertex="1" parent="_XLxsBZU-_MmjeRrphI--1">
          <mxGeometry x="70" y="80" width="560" height="550" as="geometry" />
        </mxCell>
        <mxCell id="_XLxsBZU-_MmjeRrphI--22" value="Pages" style="swimlane;fontStyle=1;childLayout=stackLayout;horizontal=1;startSize=30;horizontalStack=0;resizeParent=1;resizeParentMax=0;resizeLast=0;collapsible=1;marginBottom=0;whiteSpace=wrap;html=1;" vertex="1" parent="_XLxsBZU-_MmjeRrphI--4">
          <mxGeometry x="394" y="50" width="140" height="240" as="geometry" />
        </mxCell>
        <mxCell id="_XLxsBZU-_MmjeRrphI--23" value="sign in/up" style="text;strokeColor=none;fillColor=none;align=left;verticalAlign=middle;spacingLeft=4;spacingRight=4;overflow=hidden;points=[[0,0.5],[1,0.5]];portConstraint=eastwest;rotatable=0;whiteSpace=wrap;html=1;" vertex="1" parent="_XLxsBZU-_MmjeRrphI--22">
          <mxGeometry y="30" width="140" height="30" as="geometry" />
        </mxCell>
        <mxCell id="_XLxsBZU-_MmjeRrphI--37" value="user" style="text;strokeColor=none;fillColor=none;align=left;verticalAlign=middle;spacingLeft=4;spacingRight=4;overflow=hidden;points=[[0,0.5],[1,0.5]];portConstraint=eastwest;rotatable=0;whiteSpace=wrap;html=1;" vertex="1" parent="_XLxsBZU-_MmjeRrphI--22">
          <mxGeometry y="60" width="140" height="30" as="geometry" />
        </mxCell>
        <mxCell id="_XLxsBZU-_MmjeRrphI--24" value="products" style="text;strokeColor=none;fillColor=none;align=left;verticalAlign=middle;spacingLeft=4;spacingRight=4;overflow=hidden;points=[[0,0.5],[1,0.5]];portConstraint=eastwest;rotatable=0;whiteSpace=wrap;html=1;" vertex="1" parent="_XLxsBZU-_MmjeRrphI--22">
          <mxGeometry y="90" width="140" height="30" as="geometry" />
        </mxCell>
        <mxCell id="_XLxsBZU-_MmjeRrphI--27" value="product" style="text;strokeColor=none;fillColor=none;align=left;verticalAlign=middle;spacingLeft=4;spacingRight=4;overflow=hidden;points=[[0,0.5],[1,0.5]];portConstraint=eastwest;rotatable=0;whiteSpace=wrap;html=1;" vertex="1" parent="_XLxsBZU-_MmjeRrphI--22">
          <mxGeometry y="120" width="140" height="30" as="geometry" />
        </mxCell>
        <mxCell id="_XLxsBZU-_MmjeRrphI--28" value="order" style="text;strokeColor=none;fillColor=none;align=left;verticalAlign=middle;spacingLeft=4;spacingRight=4;overflow=hidden;points=[[0,0.5],[1,0.5]];portConstraint=eastwest;rotatable=0;whiteSpace=wrap;html=1;" vertex="1" parent="_XLxsBZU-_MmjeRrphI--22">
          <mxGeometry y="150" width="140" height="30" as="geometry" />
        </mxCell>
        <mxCell id="_XLxsBZU-_MmjeRrphI--38" value="orders" style="text;strokeColor=none;fillColor=none;align=left;verticalAlign=middle;spacingLeft=4;spacingRight=4;overflow=hidden;points=[[0,0.5],[1,0.5]];portConstraint=eastwest;rotatable=0;whiteSpace=wrap;html=1;" vertex="1" parent="_XLxsBZU-_MmjeRrphI--22">
          <mxGeometry y="180" width="140" height="30" as="geometry" />
        </mxCell>
        <mxCell id="_XLxsBZU-_MmjeRrphI--39" value="settings" style="text;strokeColor=none;fillColor=none;align=left;verticalAlign=middle;spacingLeft=4;spacingRight=4;overflow=hidden;points=[[0,0.5],[1,0.5]];portConstraint=eastwest;rotatable=0;whiteSpace=wrap;html=1;" vertex="1" parent="_XLxsBZU-_MmjeRrphI--22">
          <mxGeometry y="210" width="140" height="30" as="geometry" />
        </mxCell>
        <mxCell id="_XLxsBZU-_MmjeRrphI--40" value="&lt;b&gt;Themes&lt;/b&gt;" style="swimlane;fontStyle=0;childLayout=stackLayout;horizontal=1;startSize=30;horizontalStack=0;resizeParent=1;resizeParentMax=0;resizeLast=0;collapsible=1;marginBottom=0;whiteSpace=wrap;html=1;" vertex="1" parent="_XLxsBZU-_MmjeRrphI--4">
          <mxGeometry x="40" y="50" width="140" height="90" as="geometry" />
        </mxCell>
        <mxCell id="_XLxsBZU-_MmjeRrphI--41" value="light" style="text;strokeColor=none;fillColor=none;align=left;verticalAlign=middle;spacingLeft=4;spacingRight=4;overflow=hidden;points=[[0,0.5],[1,0.5]];portConstraint=eastwest;rotatable=0;whiteSpace=wrap;html=1;" vertex="1" parent="_XLxsBZU-_MmjeRrphI--40">
          <mxGeometry y="30" width="140" height="30" as="geometry" />
        </mxCell>
        <mxCell id="_XLxsBZU-_MmjeRrphI--42" value="dark" style="text;strokeColor=none;fillColor=none;align=left;verticalAlign=middle;spacingLeft=4;spacingRight=4;overflow=hidden;points=[[0,0.5],[1,0.5]];portConstraint=eastwest;rotatable=0;whiteSpace=wrap;html=1;" vertex="1" parent="_XLxsBZU-_MmjeRrphI--40">
          <mxGeometry y="60" width="140" height="30" as="geometry" />
        </mxCell>
        <mxCell id="_XLxsBZU-_MmjeRrphI--53" value="admin dashboard" style="swimlane;fontStyle=1;childLayout=stackLayout;horizontal=1;startSize=30;horizontalStack=0;resizeParent=1;resizeParentMax=0;resizeLast=0;collapsible=1;marginBottom=0;whiteSpace=wrap;html=1;" vertex="1" parent="_XLxsBZU-_MmjeRrphI--4">
          <mxGeometry x="210" y="50" width="140" height="210" as="geometry" />
        </mxCell>
        <mxCell id="_XLxsBZU-_MmjeRrphI--54" value="charts" style="text;strokeColor=none;fillColor=none;align=left;verticalAlign=middle;spacingLeft=4;spacingRight=4;overflow=hidden;points=[[0,0.5],[1,0.5]];portConstraint=eastwest;rotatable=0;whiteSpace=wrap;html=1;" vertex="1" parent="_XLxsBZU-_MmjeRrphI--53">
          <mxGeometry y="30" width="140" height="30" as="geometry" />
        </mxCell>
        <mxCell id="_XLxsBZU-_MmjeRrphI--55" value="orders" style="text;strokeColor=none;fillColor=none;align=left;verticalAlign=middle;spacingLeft=4;spacingRight=4;overflow=hidden;points=[[0,0.5],[1,0.5]];portConstraint=eastwest;rotatable=0;whiteSpace=wrap;html=1;" vertex="1" parent="_XLxsBZU-_MmjeRrphI--53">
          <mxGeometry y="60" width="140" height="30" as="geometry" />
        </mxCell>
        <mxCell id="_XLxsBZU-_MmjeRrphI--56" value="customers" style="text;strokeColor=none;fillColor=none;align=left;verticalAlign=middle;spacingLeft=4;spacingRight=4;overflow=hidden;points=[[0,0.5],[1,0.5]];portConstraint=eastwest;rotatable=0;whiteSpace=wrap;html=1;" vertex="1" parent="_XLxsBZU-_MmjeRrphI--53">
          <mxGeometry y="90" width="140" height="30" as="geometry" />
        </mxCell>
        <mxCell id="_XLxsBZU-_MmjeRrphI--57" value="invoices" style="text;strokeColor=none;fillColor=none;align=left;verticalAlign=middle;spacingLeft=4;spacingRight=4;overflow=hidden;points=[[0,0.5],[1,0.5]];portConstraint=eastwest;rotatable=0;whiteSpace=wrap;html=1;" vertex="1" parent="_XLxsBZU-_MmjeRrphI--53">
          <mxGeometry y="120" width="140" height="30" as="geometry" />
        </mxCell>
        <mxCell id="_XLxsBZU-_MmjeRrphI--58" value="products" style="text;strokeColor=none;fillColor=none;align=left;verticalAlign=middle;spacingLeft=4;spacingRight=4;overflow=hidden;points=[[0,0.5],[1,0.5]];portConstraint=eastwest;rotatable=0;whiteSpace=wrap;html=1;" vertex="1" parent="_XLxsBZU-_MmjeRrphI--53">
          <mxGeometry y="150" width="140" height="30" as="geometry" />
        </mxCell>
        <mxCell id="_XLxsBZU-_MmjeRrphI--59" value="product" style="text;strokeColor=none;fillColor=none;align=left;verticalAlign=middle;spacingLeft=4;spacingRight=4;overflow=hidden;points=[[0,0.5],[1,0.5]];portConstraint=eastwest;rotatable=0;whiteSpace=wrap;html=1;" vertex="1" parent="_XLxsBZU-_MmjeRrphI--53">
          <mxGeometry y="180" width="140" height="30" as="geometry" />
        </mxCell>
        <mxCell id="_XLxsBZU-_MmjeRrphI--10" value="db service provider" style="swimlane;whiteSpace=wrap;html=1;" vertex="1" parent="_XLxsBZU-_MmjeRrphI--1">
          <mxGeometry x="720" y="640" width="200" height="200" as="geometry" />
        </mxCell>
        <mxCell id="_XLxsBZU-_MmjeRrphI--12" value="" style="shape=flexArrow;endArrow=classic;startArrow=classic;html=1;rounded=0;exitX=0;exitY=0;exitDx=0;exitDy=0;entryX=1;entryY=1;entryDx=0;entryDy=0;" edge="1" parent="_XLxsBZU-_MmjeRrphI--1" source="_XLxsBZU-_MmjeRrphI--10" target="_XLxsBZU-_MmjeRrphI--4">
          <mxGeometry width="100" height="100" relative="1" as="geometry">
            <mxPoint x="510" y="680" as="sourcePoint" />
            <mxPoint x="620" y="560" as="targetPoint" />
          </mxGeometry>
        </mxCell>
        <mxCell id="_XLxsBZU-_MmjeRrphI--16" value="" style="shape=flexArrow;endArrow=classic;startArrow=classic;html=1;rounded=0;exitX=1;exitY=0;exitDx=0;exitDy=0;" edge="1" parent="_XLxsBZU-_MmjeRrphI--1" source="_XLxsBZU-_MmjeRrphI--10">
          <mxGeometry width="100" height="100" relative="1" as="geometry">
            <mxPoint x="820" y="660" as="sourcePoint" />
            <mxPoint x="920" y="560" as="targetPoint" />
          </mxGeometry>
        </mxCell>
        <mxCell id="_XLxsBZU-_MmjeRrphI--17" value="boradcast channel connection" style="edgeLabel;html=1;align=center;verticalAlign=middle;resizable=0;points=[];" vertex="1" connectable="0" parent="_XLxsBZU-_MmjeRrphI--16">
          <mxGeometry x="-0.0932" y="-1" relative="1" as="geometry">
            <mxPoint as="offset" />
          </mxGeometry>
        </mxCell>
        <mxCell id="_XLxsBZU-_MmjeRrphI--72" style="edgeStyle=orthogonalEdgeStyle;rounded=0;orthogonalLoop=1;jettySize=auto;html=1;exitX=1;exitY=0.5;exitDx=0;exitDy=0;entryX=0;entryY=0.25;entryDx=0;entryDy=0;" edge="1" parent="_XLxsBZU-_MmjeRrphI--1" source="_XLxsBZU-_MmjeRrphI--46" target="_XLxsBZU-_MmjeRrphI--60">
          <mxGeometry relative="1" as="geometry" />
        </mxCell>
        <mxCell id="_XLxsBZU-_MmjeRrphI--46" value="request handler" style="swimlane;whiteSpace=wrap;html=1;" vertex="1" parent="_XLxsBZU-_MmjeRrphI--1">
          <mxGeometry x="50" y="820" width="310" height="260" as="geometry" />
        </mxCell>
        <mxCell id="_XLxsBZU-_MmjeRrphI--73" style="edgeStyle=orthogonalEdgeStyle;rounded=0;orthogonalLoop=1;jettySize=auto;html=1;entryX=0.75;entryY=1;entryDx=0;entryDy=0;" edge="1" parent="_XLxsBZU-_MmjeRrphI--1" source="_XLxsBZU-_MmjeRrphI--60" target="_XLxsBZU-_MmjeRrphI--4">
          <mxGeometry relative="1" as="geometry" />
        </mxCell>
        <mxCell id="_XLxsBZU-_MmjeRrphI--76" value="&lt;b&gt;&lt;font style=&quot;font-size: 24px;&quot;&gt;*&lt;/font&gt;&lt;/b&gt;" style="edgeLabel;html=1;align=center;verticalAlign=middle;resizable=0;points=[];" vertex="1" connectable="0" parent="_XLxsBZU-_MmjeRrphI--73">
          <mxGeometry x="0.0063" y="2" relative="1" as="geometry">
            <mxPoint as="offset" />
          </mxGeometry>
        </mxCell>
        <mxCell id="_XLxsBZU-_MmjeRrphI--81" style="edgeStyle=orthogonalEdgeStyle;rounded=0;orthogonalLoop=1;jettySize=auto;html=1;entryX=0;entryY=0.25;entryDx=0;entryDy=0;" edge="1" parent="_XLxsBZU-_MmjeRrphI--1" source="_XLxsBZU-_MmjeRrphI--60" target="_XLxsBZU-_MmjeRrphI--84">
          <mxGeometry relative="1" as="geometry">
            <mxPoint x="920" y="1000" as="targetPoint" />
          </mxGeometry>
        </mxCell>
        <mxCell id="_XLxsBZU-_MmjeRrphI--82" value="api" style="edgeLabel;html=1;align=center;verticalAlign=middle;resizable=0;points=[];fontStyle=1;fontSize=16;" vertex="1" connectable="0" parent="_XLxsBZU-_MmjeRrphI--81">
          <mxGeometry x="-0.055" relative="1" as="geometry">
            <mxPoint x="1" as="offset" />
          </mxGeometry>
        </mxCell>
        <mxCell id="_XLxsBZU-_MmjeRrphI--60" value="Routes" style="swimlane;whiteSpace=wrap;html=1;startSize=23;" vertex="1" parent="_XLxsBZU-_MmjeRrphI--1">
          <mxGeometry x="430" y="860" width="310" height="280" as="geometry" />
        </mxCell>
        <mxCell id="_XLxsBZU-_MmjeRrphI--101" value="endpoints" style="shape=table;startSize=30;container=1;collapsible=0;childLayout=tableLayout;" vertex="1" parent="_XLxsBZU-_MmjeRrphI--60">
          <mxGeometry x="24" y="40" width="246" height="110" as="geometry" />
        </mxCell>
        <mxCell id="_XLxsBZU-_MmjeRrphI--102" value="" style="shape=tableRow;horizontal=0;startSize=0;swimlaneHead=0;swimlaneBody=0;strokeColor=inherit;top=0;left=0;bottom=0;right=0;collapsible=0;dropTarget=0;fillColor=none;points=[[0,0.5],[1,0.5]];portConstraint=eastwest;" vertex="1" parent="_XLxsBZU-_MmjeRrphI--101">
          <mxGeometry y="30" width="246" height="40" as="geometry" />
        </mxCell>
        <mxCell id="_XLxsBZU-_MmjeRrphI--103" value="/api/*" style="shape=partialRectangle;html=1;whiteSpace=wrap;connectable=0;strokeColor=inherit;overflow=hidden;fillColor=none;top=0;left=0;bottom=0;right=0;pointerEvents=1;" vertex="1" parent="_XLxsBZU-_MmjeRrphI--102">
          <mxGeometry width="123" height="40" as="geometry">
            <mxRectangle width="123" height="40" as="alternateBounds" />
          </mxGeometry>
        </mxCell>
        <mxCell id="_XLxsBZU-_MmjeRrphI--104" value="api router" style="shape=partialRectangle;html=1;whiteSpace=wrap;connectable=0;strokeColor=inherit;overflow=hidden;fillColor=none;top=0;left=0;bottom=0;right=0;pointerEvents=1;" vertex="1" parent="_XLxsBZU-_MmjeRrphI--102">
          <mxGeometry x="123" width="123" height="40" as="geometry">
            <mxRectangle width="123" height="40" as="alternateBounds" />
          </mxGeometry>
        </mxCell>
        <mxCell id="_XLxsBZU-_MmjeRrphI--105" value="" style="shape=tableRow;horizontal=0;startSize=0;swimlaneHead=0;swimlaneBody=0;strokeColor=inherit;top=0;left=0;bottom=0;right=0;collapsible=0;dropTarget=0;fillColor=none;points=[[0,0.5],[1,0.5]];portConstraint=eastwest;" vertex="1" parent="_XLxsBZU-_MmjeRrphI--101">
          <mxGeometry y="70" width="246" height="40" as="geometry" />
        </mxCell>
        <mxCell id="_XLxsBZU-_MmjeRrphI--106" value="*" style="shape=partialRectangle;html=1;whiteSpace=wrap;connectable=0;strokeColor=inherit;overflow=hidden;fillColor=none;top=0;left=0;bottom=0;right=0;pointerEvents=1;" vertex="1" parent="_XLxsBZU-_MmjeRrphI--105">
          <mxGeometry width="123" height="40" as="geometry">
            <mxRectangle width="123" height="40" as="alternateBounds" />
          </mxGeometry>
        </mxCell>
        <mxCell id="_XLxsBZU-_MmjeRrphI--107" value="next.js handler" style="shape=partialRectangle;html=1;whiteSpace=wrap;connectable=0;strokeColor=inherit;overflow=hidden;fillColor=none;top=0;left=0;bottom=0;right=0;pointerEvents=1;" vertex="1" parent="_XLxsBZU-_MmjeRrphI--105">
          <mxGeometry x="123" width="123" height="40" as="geometry">
            <mxRectangle width="123" height="40" as="alternateBounds" />
          </mxGeometry>
        </mxCell>
        <mxCell id="_XLxsBZU-_MmjeRrphI--84" value="api routes" style="swimlane;whiteSpace=wrap;html=1;startSize=23;" vertex="1" parent="_XLxsBZU-_MmjeRrphI--1">
          <mxGeometry x="1000" y="910" width="380" height="360" as="geometry" />
        </mxCell>
        <mxCell id="_XLxsBZU-_MmjeRrphI--86" value="middlewares" style="swimlane;fontStyle=0;childLayout=stackLayout;horizontal=1;startSize=30;horizontalStack=0;resizeParent=1;resizeParentMax=0;resizeLast=0;collapsible=1;marginBottom=0;whiteSpace=wrap;html=1;" vertex="1" parent="_XLxsBZU-_MmjeRrphI--84">
          <mxGeometry x="40" y="50" width="140" height="90" as="geometry" />
        </mxCell>
        <mxCell id="_XLxsBZU-_MmjeRrphI--87" value="json parser" style="text;strokeColor=none;fillColor=none;align=left;verticalAlign=middle;spacingLeft=4;spacingRight=4;overflow=hidden;points=[[0,0.5],[1,0.5]];portConstraint=eastwest;rotatable=0;whiteSpace=wrap;html=1;" vertex="1" parent="_XLxsBZU-_MmjeRrphI--86">
          <mxGeometry y="30" width="140" height="30" as="geometry" />
        </mxCell>
        <mxCell id="_XLxsBZU-_MmjeRrphI--88" value="url encoded parser" style="text;strokeColor=none;fillColor=none;align=left;verticalAlign=middle;spacingLeft=4;spacingRight=4;overflow=hidden;points=[[0,0.5],[1,0.5]];portConstraint=eastwest;rotatable=0;whiteSpace=wrap;html=1;" vertex="1" parent="_XLxsBZU-_MmjeRrphI--86">
          <mxGeometry y="60" width="140" height="30" as="geometry" />
        </mxCell>
        <mxCell id="_XLxsBZU-_MmjeRrphI--91" value="" style="shape=flexArrow;endArrow=classic;startArrow=classic;html=1;rounded=0;exitX=0;exitY=0;exitDx=0;exitDy=0;entryX=1;entryY=1;entryDx=0;entryDy=0;" edge="1" parent="_XLxsBZU-_MmjeRrphI--1" source="_XLxsBZU-_MmjeRrphI--84" target="_XLxsBZU-_MmjeRrphI--10">
          <mxGeometry width="100" height="100" relative="1" as="geometry">
            <mxPoint x="920" y="810" as="sourcePoint" />
            <mxPoint x="1020" y="710" as="targetPoint" />
          </mxGeometry>
        </mxCell>
        <mxCell id="_XLxsBZU-_MmjeRrphI--93" style="edgeStyle=orthogonalEdgeStyle;rounded=0;orthogonalLoop=1;jettySize=auto;html=1;entryX=0;entryY=0.5;entryDx=0;entryDy=0;" edge="1" parent="1" source="_XLxsBZU-_MmjeRrphI--92" target="_XLxsBZU-_MmjeRrphI--46">
          <mxGeometry relative="1" as="geometry" />
        </mxCell>
        <mxCell id="_XLxsBZU-_MmjeRrphI--94" value="Request" style="edgeLabel;html=1;align=center;verticalAlign=middle;resizable=0;points=[];fontStyle=1;fontSize=15;" vertex="1" connectable="0" parent="_XLxsBZU-_MmjeRrphI--93">
          <mxGeometry x="-0.0138" y="2" relative="1" as="geometry">
            <mxPoint as="offset" />
          </mxGeometry>
        </mxCell>
        <mxCell id="_XLxsBZU-_MmjeRrphI--92" value="browser" style="swimlane;whiteSpace=wrap;html=1;" vertex="1" parent="1">
          <mxGeometry x="-730" y="940" width="270" height="265" as="geometry" />
        </mxCell>
        <mxCell id="_XLxsBZU-_MmjeRrphI--98" style="edgeStyle=orthogonalEdgeStyle;rounded=0;orthogonalLoop=1;jettySize=auto;html=1;exitX=0;exitY=0.75;exitDx=0;exitDy=0;entryX=1;entryY=0.75;entryDx=0;entryDy=0;" edge="1" parent="1" source="_XLxsBZU-_MmjeRrphI--46" target="_XLxsBZU-_MmjeRrphI--92">
          <mxGeometry relative="1" as="geometry" />
        </mxCell>
        <mxCell id="_XLxsBZU-_MmjeRrphI--99" value="Response" style="edgeLabel;html=1;align=center;verticalAlign=middle;resizable=0;points=[];fontStyle=1;fontSize=15;" vertex="1" connectable="0" parent="_XLxsBZU-_MmjeRrphI--98">
          <mxGeometry x="0.0197" y="-4" relative="1" as="geometry">
            <mxPoint as="offset" />
          </mxGeometry>
        </mxCell>
      </root>
    </mxGraphModel>
  </diagram>
</mxfile>
